<?xml version="1.0" encoding="UTF-8" standalone="no"?>
<!-- Created with Inkscape (http://www.inkscape.org/) -->

<svg
   xmlns:dc="http://purl.org/dc/elements/1.1/"
   xmlns:cc="http://creativecommons.org/ns#"
   xmlns:rdf="http://www.w3.org/1999/02/22-rdf-syntax-ns#"
   xmlns:svg="http://www.w3.org/2000/svg"
   xmlns="http://www.w3.org/2000/svg"
   xmlns:sodipodi="http://sodipodi.sourceforge.net/DTD/sodipodi-0.dtd"
   xmlns:inkscape="http://www.inkscape.org/namespaces/inkscape"
   width="210mm"
   height="297mm"
   viewBox="0 0 744.09448819 1052.3622047"
   id="svg2"
   version="1.1"
   inkscape:version="0.91 r13725"
   sodipodi:docname="mastercard1979.svg">
  <defs
     id="defs4" />
  <sodipodi:namedview
     id="base"
     pagecolor="#ffffff"
     bordercolor="#666666"
     borderopacity="1.0"
     inkscape:pageopacity="0.0"
     inkscape:pageshadow="2"
     inkscape:zoom="0.5216835"
     inkscape:cx="372.04724"
     inkscape:cy="526.1811"
     inkscape:document-units="px"
     inkscape:current-layer="layer1"
     showgrid="false"
     inkscape:window-width="1280"
     inkscape:window-height="751"
     inkscape:window-x="2"
     inkscape:window-y="0"
     inkscape:window-maximized="0"
     inkscape:snap-global="false" />
  <metadata
     id="metadata7">
    <rdf:RDF>
      <cc:Work
         rdf:about="">
        <dc:format>image/svg+xml</dc:format>
        <dc:type
           rdf:resource="http://purl.org/dc/dcmitype/StillImage" />
        <dc:title></dc:title>
      </cc:Work>
    </rdf:RDF>
  </metadata>
  <g
     inkscape:label="Capa 1"
     inkscape:groupmode="layer"
     id="layer1">
    <circle
       style="opacity:1;fill:#ff0000;fill-opacity:1;stroke:none;stroke-width:2.5;stroke-linejoin:miter;stroke-miterlimit:4;stroke-dasharray:none"
       id="path4286"
       cx="229.59059"
       cy="452.24612"
       r="215.4579" />
    <circle
       cy="452.24612"
       cx="519.53766"
       id="circle4288"
       style="opacity:1;fill:#ffcc00;fill-opacity:1;stroke:none;stroke-width:2.5;stroke-linejoin:miter;stroke-miterlimit:4;stroke-dasharray:none"
       r="215.4579" />
    <path
       style="opacity:1;fill:#d45500;fill-opacity:1;stroke:none;stroke-width:2.5;stroke-linejoin:miter;stroke-miterlimit:4;stroke-dasharray:none"
       d="M 374.54817,293.19002 A 215.45793,215.45793 0 0 0 304.07826,452.24776 215.45793,215.45793 0 0 0 374.57999,611.30232 215.45793,215.45793 0 0 0 445.0499,452.24776 215.45793,215.45793 0 0 0 374.54817,293.19002 Z"
       id="circle4295"
       inkscape:connector-curvature="0" />
    <g
       style="font-style:normal;font-weight:normal;font-size:111.41083527px;line-height:125%;font-family:Sans;-inkscape-font-specification:Sans;text-align:center;letter-spacing:0px;word-spacing:0px;text-anchor:middle;fill:#ffffff;fill-opacity:1;stroke:none;stroke-width:1px;stroke-linecap:butt;stroke-linejoin:miter;stroke-opacity:1"
       id="text4290"
       transform="matrix(1.1807719,0,0,1.1807719,-45.705918,-440.07872)">
      <path
         d="m 65.492168,714.55257 0,78.65605 18.048555,0 0,-30.97221 c -0.111411,-7.24171 -0.334232,-14.372 -0.445643,-21.5023 1.671162,5.34772 3.342325,10.80686 4.902077,15.93175 1.33693,4.12221 2.562449,7.91017 3.787968,11.69814 l 8.355815,24.84462 14.48341,0 c 1.67116,-4.90208 3.34232,-9.91557 5.01348,-14.81764 2.0054,-5.79337 4.01079,-11.69814 5.90478,-17.4915 2.22821,-6.90748 4.34502,-13.81495 6.46183,-20.72242 -0.22283,7.01888 -0.44565,14.14918 -0.44565,21.27947 l 0,31.75209 18.82843,0 0,-78.65605 -26.7386,0 c -1.33693,4.1222 -2.67386,8.35581 -4.1222,12.58942 -1.78257,5.68196 -3.78797,11.36391 -5.57054,17.15727 -2.1168,6.79606 -4.1222,13.48071 -6.01618,20.16536 -2.11681,-6.79606 -4.1222,-13.59212 -6.35042,-20.49959 -3.119505,-9.80415 -6.350419,-19.60831 -9.692744,-29.41246 l -26.404368,0 z"
         style="font-style:normal;font-variant:normal;font-weight:bold;font-stretch:normal;font-family:'Avant Garde BQ';-inkscape-font-specification:'Avant Garde BQ Bold';letter-spacing:-5.68623877px;fill:#ffffff"
         id="path4332"
         inkscape:connector-curvature="0" />
      <path
         d="m 198.73524,736.72332 c -2.45104,-1.67116 -7.13029,-4.90207 -14.92905,-4.90207 -9.02428,0 -17.26868,4.45643 -22.72781,11.58672 -5.90478,8.02158 -6.57324,16.15458 -6.57324,19.71972 0,12.92366 7.13029,20.94524 10.58403,24.06474 7.01888,6.46183 13.92635,7.24171 17.71432,7.24171 8.91287,0 13.70353,-3.89938 16.60021,-6.01619 l 0,4.79067 17.49151,0 0,-60.16185 -18.15997,0 0,3.67655 z m -22.17076,36.09712 c -2.67386,-2.56245 -4.1222,-6.01619 -4.1222,-9.58134 0,-7.46452 6.1276,-13.70353 13.59212,-13.70353 7.57594,0 13.59213,6.1276 13.70354,13.59212 0,7.57594 -6.01619,13.59212 -13.59213,13.70354 -3.56514,0 -7.13029,-1.55976 -9.58133,-4.01079 z"
         style="font-style:normal;font-variant:normal;font-weight:bold;font-stretch:normal;font-family:'Avant Garde BQ';-inkscape-font-specification:'Avant Garde BQ Bold';letter-spacing:-5.68623877px;fill:#ffffff"
         id="path4334"
         inkscape:connector-curvature="0" />
      <path
         d="m 266.4113,750.76109 c -0.11141,-0.89129 -0.11141,-3.23091 -1.00269,-5.79336 -1.67117,-5.1249 -7.1303,-13.03507 -20.61101,-13.03507 -8.35581,0 -17.04586,3.67656 -21.05665,11.47531 -0.89128,1.55976 -2.00539,4.23362 -2.00539,8.57864 0,2.22822 0.22282,7.46453 4.67925,11.92096 2.45104,2.33963 5.57055,4.1222 12.47802,5.90477 4.79066,1.22552 7.46452,1.55975 9.13569,3.56515 0.77987,1.11411 1.00269,2.33963 1.00269,2.89668 0,1.33693 -1.00269,4.67926 -5.01348,4.79067 -0.44565,0 -1.67117,-0.11141 -2.78528,-0.77988 -2.56244,-1.33693 -2.67386,-4.23361 -2.89668,-5.1249 l -18.27137,0 c 0.22282,1.33693 0.44564,4.56785 2.22821,7.91017 1.11411,2.22822 2.89668,4.23361 4.79067,5.79337 2.89668,2.45103 8.02158,5.68195 16.93445,5.68195 10.47261,0 16.4888,-4.56785 19.27407,-7.68735 4.56784,-4.90208 4.90208,-9.80415 4.90208,-12.58942 0,-5.45913 -1.89399,-9.91557 -6.46183,-13.14648 -4.01079,-3.00809 -7.79876,-3.89938 -12.47802,-5.01349 -3.56514,-1.0027 -5.90477,-1.67116 -7.2417,-2.56245 -1.22552,-0.89129 -2.00539,-2.22822 -2.00539,-3.89938 0,-2.45104 1.78257,-4.56784 4.34502,-4.56784 0.77987,0 1.67116,0.22282 2.33963,0.66846 1.89398,1.11411 2.22821,2.89668 2.45103,5.01349 l 17.26868,0 z"
         style="font-style:normal;font-variant:normal;font-weight:bold;font-stretch:normal;font-family:'Avant Garde BQ';-inkscape-font-specification:'Avant Garde BQ Bold';letter-spacing:-5.68623877px;fill:#ffffff"
         id="path4336"
         inkscape:connector-curvature="0" />
      <path
         d="m 273.26052,714.55257 0,18.27138 -6.68465,0 0,14.03776 6.46183,0 0,46.34691 18.27137,0 0,-46.2355 7.79876,0 0,-14.03776 -7.68735,0 0,-18.38279 -18.15996,0 z"
         style="font-style:normal;font-variant:normal;font-weight:bold;font-stretch:normal;font-family:'Avant Garde BQ';-inkscape-font-specification:'Avant Garde BQ Bold';letter-spacing:-5.68623877px;fill:#ffffff"
         id="path4338"
         inkscape:connector-curvature="0" />
      <path
         d="m 315.97706,756.10881 c 0.55706,-1.11411 1.11411,-2.11681 2.0054,-3.00809 0.22282,-0.33424 1.33693,-1.55975 2.67386,-2.33963 2.67386,-1.89398 5.45913,-2.78527 8.69004,-2.78527 8.57864,0 12.03237,5.45913 13.48071,8.13299 l -26.85001,0 z m 44.00728,13.14648 c 0.22282,-2.11681 0.44565,-4.1222 0.44565,-6.23901 0,-9.02428 -4.34503,-17.93714 -11.14109,-23.6191 -7.79876,-6.68465 -16.4888,-7.46452 -20.05395,-7.46452 -9.2471,0 -18.27138,4.23361 -24.17615,11.3639 -6.46183,7.79876 -7.2417,16.15458 -7.2417,19.94254 0,9.2471 4.34502,18.38279 11.3639,24.17615 7.91017,6.46183 16.4888,7.1303 20.27677,7.1303 11.58673,0 18.38279,-5.68195 21.50229,-8.80146 4.56785,-4.45643 6.1276,-8.35581 7.24171,-10.91826 l -18.60561,0 c -1.11411,1.11411 -1.55975,1.44834 -2.33963,1.89398 -2.1168,1.44835 -5.1249,2.11681 -7.79876,2.11681 -4.79066,0 -9.35851,-2.00539 -12.25519,-5.90477 -1.0027,-1.33693 -2.00539,-3.45374 -2.1168,-3.67656 l 44.89856,0 z"
         style="font-style:normal;font-variant:normal;font-weight:bold;font-stretch:normal;font-family:'Avant Garde BQ';-inkscape-font-specification:'Avant Garde BQ Bold';letter-spacing:-5.68623877px;fill:#ffffff"
         id="path4340"
         inkscape:connector-curvature="0" />
      <path
         d="m 364.3251,733.15818 0,60.05044 18.15997,0 0,-33.53466 c 0.11141,-3.0081 0.44564,-4.23361 1.33693,-5.57055 2.78527,-4.23361 9.91556,-4.45643 10.47262,-4.45643 1.44834,-0.11141 2.56245,0.11141 3.78796,0.22282 l 0,-16.93444 c -2.33962,0 -8.35581,-0.44565 -13.70353,4.90207 -1.44834,1.44834 -2.78527,3.23092 -3.1195,3.67656 l 0,-8.35581 -16.93445,0 z"
         style="font-style:normal;font-variant:normal;font-weight:bold;font-stretch:normal;font-family:'Avant Garde BQ';-inkscape-font-specification:'Avant Garde BQ Bold';letter-spacing:-5.68623877px;fill:#ffffff"
         id="path4342"
         inkscape:connector-curvature="0" />
      <path
         d="m 479.40819,743.96503 c -1.33693,-4.56785 -4.1222,-13.81494 -13.81495,-21.72511 -10.3612,-8.46723 -20.83382,-9.35851 -25.95872,-9.35851 -10.02698,0 -17.26868,3.45373 -20.49959,5.34772 -6.35042,3.78796 -20.38819,14.81764 -20.38819,36.20852 0,11.25249 4.23362,18.4942 6.79606,22.17075 4.01079,5.79337 14.59482,18.04856 34.53736,18.04856 4.56785,0 8.13299,-0.66847 9.80416,-1.11411 5.57054,-1.33693 18.15996,-6.23901 25.7359,-20.27677 1.22552,-2.33963 2.22822,-4.56785 3.89938,-9.69274 l -21.83652,0 c -1.22552,2.00539 -1.67117,2.67386 -2.45104,3.67655 -3.0081,3.56515 -7.35312,5.57055 -8.57864,6.01619 -1.33693,0.44564 -3.56514,1.11411 -6.79606,1.11411 -12.14378,0 -17.71432,-9.13569 -19.27407,-12.81225 -0.55706,-1.33693 -1.44834,-3.89938 -1.55975,-7.68735 0,-8.2444 4.67925,-15.70892 12.3666,-18.93984 1.44834,-0.66846 4.34502,-1.78257 8.46722,-1.78257 6.35042,0 12.03237,2.78527 15.82034,7.79876 0.66847,1.00269 1.33693,1.89398 1.89398,3.00809 l 21.83653,0 z"
         style="font-style:normal;font-variant:normal;font-weight:bold;font-stretch:normal;font-family:'Avant Garde BQ';-inkscape-font-specification:'Avant Garde BQ Bold';letter-spacing:-5.68623877px;fill:#ffffff"
         id="path4344"
         inkscape:connector-curvature="0" />
      <path
         d="m 524.52703,736.72332 c -2.45104,-1.67116 -7.1303,-4.90207 -14.92906,-4.90207 -9.02427,0 -17.26868,4.45643 -22.72781,11.58672 -5.90477,8.02158 -6.57324,16.15458 -6.57324,19.71972 0,12.92366 7.1303,20.94524 10.58403,24.06474 7.01889,6.46183 13.92636,7.24171 17.71433,7.24171 8.91286,0 13.70353,-3.89938 16.60021,-6.01619 l 0,4.79067 17.4915,0 0,-60.16185 -18.15996,0 0,3.67655 z m -22.17076,36.09712 c -2.67386,-2.56245 -4.1222,-6.01619 -4.1222,-9.58134 0,-7.46452 6.12759,-13.70353 13.59212,-13.70353 7.57594,0 13.59212,6.1276 13.70353,13.59212 0,7.57594 -6.01618,13.59212 -13.59212,13.70354 -3.56515,0 -7.13029,-1.55976 -9.58133,-4.01079 z"
         style="font-style:normal;font-variant:normal;font-weight:bold;font-stretch:normal;font-family:'Avant Garde BQ';-inkscape-font-specification:'Avant Garde BQ Bold';letter-spacing:-5.68623877px;fill:#ffffff"
         id="path4346"
         inkscape:connector-curvature="0" />
      <path
         d="m 549.19851,733.15818 0,60.05044 18.15997,0 0,-33.53466 c 0.11141,-3.0081 0.44564,-4.23361 1.33693,-5.57055 2.78527,-4.23361 9.91557,-4.45643 10.47262,-4.45643 1.44834,-0.11141 2.56245,0.11141 3.78797,0.22282 l 0,-16.93444 c -2.33963,0 -8.35581,-0.44565 -13.70353,4.90207 -1.44835,1.44834 -2.78528,3.23092 -3.11951,3.67656 l 0,-8.35581 -16.93445,0 z"
         style="font-style:normal;font-variant:normal;font-weight:bold;font-stretch:normal;font-family:'Avant Garde BQ';-inkscape-font-specification:'Avant Garde BQ Bold';letter-spacing:-5.68623877px;fill:#ffffff"
         id="path4348"
         inkscape:connector-curvature="0" />
      <path
         d="m 627.07038,736.83474 c -2.56245,-1.67117 -7.13029,-4.90208 -14.92905,-4.90208 -9.02428,0 -17.38009,4.45643 -22.72781,11.58673 -6.01619,7.91016 -6.57324,16.15457 -6.57324,19.71971 0,12.92366 7.13029,20.94524 10.47262,24.06474 7.01888,6.46183 13.92635,7.24171 17.82573,7.24171 8.80146,0 13.70354,-3.89938 16.48881,-6.01619 l 0.11141,4.67926 17.38009,0 0,-78.65605 -18.04856,0 0,22.28217 z m -22.28216,36.09711 c -2.56245,-2.67386 -4.0108,-6.1276 -4.0108,-9.69275 0,-7.46452 6.01619,-13.59212 13.59213,-13.59212 7.46452,-0.11141 13.59212,6.01619 13.59212,13.59212 0,7.46453 -6.01619,13.59213 -13.59212,13.59213 -3.56515,0 -7.1303,-1.55976 -9.58133,-3.89938 z"
         style="font-style:normal;font-variant:normal;font-weight:bold;font-stretch:normal;font-family:'Avant Garde BQ';-inkscape-font-specification:'Avant Garde BQ Bold';letter-spacing:-5.68623877px;fill:#ffffff"
         id="path4350"
         inkscape:connector-curvature="0" />
    </g>
  </g>
</svg>
